<svg xmlns="http://www.w3.org/2000/svg" xmlns:xlink="http://www.w3.org/1999/xlink" viewBox="0 0 183.6 105.79"><defs><style>.cls-1{fill:none;}.cls-2{clip-path:url(#clip-path);}.cls-3{fill:#e7040f;}.cls-3,.cls-4,.cls-5{fill-rule:evenodd;}.cls-4,.cls-6{fill:#393185;}.cls-5,.cls-7{fill:#00a0e3;}</style><clipPath id="clip-path" transform="translate(-44.47 -46.62)"><rect class="cls-1" width="457.79" height="162.79"/></clipPath></defs><g id="Layer_2" data-name="Layer 2"><g id="Layer_1-2" data-name="Layer 1"><path class="cls-3" d="M109.28,46.62c4.38,0,7.58,5.05,4.08,9.64-4.59,3.5-9.65.3-9.65-4.08a5.57,5.57,0,0,1,5.57-5.56" transform="translate(-44.47 -46.62)"/><path class="cls-4" d="M93.55,53.86c4.38,0,7.58,5,4.08,9.65C93,67,88,63.81,88,59.43a5.56,5.56,0,0,1,5.56-5.57" transform="translate(-44.47 -46.62)"/><path class="cls-4" d="M93.55,67.53h0a9.71,9.71,0,0,1,4.12.9,12.15,12.15,0,0,0-.32,2l-.76,11.11a97.51,97.51,0,0,0-13.66,2.79l.46-6.66c.39-5.57,4.57-10.16,10.16-10.16" transform="translate(-44.47 -46.62)"/><path class="cls-5" d="M77.12,76h0a9.69,9.69,0,0,1,4.22,1c0,.24,0,.48-.07.72l-.5,7.3a95.06,95.06,0,0,0-14.12,5.57L67,86.17C67.34,80.6,71.53,76,77.12,76" transform="translate(-44.47 -46.62)"/><path class="cls-5" d="M77.12,62.35c4.38,0,7.57,5.05,4.08,9.64h0c-4.6,3.5-9.65.3-9.65-4.08a5.56,5.56,0,0,1,5.57-5.56" transform="translate(-44.47 -46.62)"/><path class="cls-4" d="M141.7,76h0a9.73,9.73,0,0,0-4.23,1c0,.24.06.48.07.72l.51,7.3a95.37,95.37,0,0,1,14.11,5.57l-.3-4.39C151.47,80.6,147.28,76,141.7,76" transform="translate(-44.47 -46.62)"/><path class="cls-5" d="M125.26,53.86c-4.38,0-7.57,5-4.08,9.65,4.59,3.49,9.65.3,9.65-4.08a5.57,5.57,0,0,0-5.57-5.57" transform="translate(-44.47 -46.62)"/><path class="cls-5" d="M125.26,67.53h0a9.66,9.66,0,0,0-4.11.9,12.15,12.15,0,0,1,.31,2l.77,11.11a97.67,97.67,0,0,1,13.65,2.79l-.46-6.66c-.38-5.57-4.57-10.16-10.16-10.16" transform="translate(-44.47 -46.62)"/><path class="cls-4" d="M141.7,62.35c-4.38,0-7.58,5.05-4.08,9.64,4.59,3.5,9.64.3,9.64-4.08a5.56,5.56,0,0,0-5.56-5.56" transform="translate(-44.47 -46.62)"/><path class="cls-3" d="M109.28,60.28h5.52A4.22,4.22,0,0,1,119,64.22l1.18,17.1a97.09,97.09,0,0,0-21.82,0l.75-10.9c.38-5.58,4.57-10.17,10.16-10.17" transform="translate(-44.47 -46.62)"/><path class="cls-5" d="M80.94,90.9a107.34,107.34,0,0,0-35.81,16.57,95.35,95.35,0,0,1,35.81-20.1Z" transform="translate(-44.47 -46.62)"/><path class="cls-4" d="M96.31,88.08a113.32,113.32,0,0,0-13.18,2.29V86.73A97.09,97.09,0,0,1,96.31,84Z" transform="translate(-44.47 -46.62)"/><path class="cls-4" d="M137.8,87.35a95.39,95.39,0,0,1,35.88,20.12A107.23,107.23,0,0,0,137.8,90.89Z" transform="translate(-44.47 -46.62)"/><path class="cls-5" d="M122.31,84a97,97,0,0,1,13.3,2.71v3.64a115.36,115.36,0,0,0-13.3-2.29Z" transform="translate(-44.47 -46.62)"/><path class="cls-3" d="M109.41,83.16a99.71,99.71,0,0,1,10.71.58v4.1q-5.28-.5-10.71-.5c-3.69,0-7.33.18-10.91.52v-4.1a100.7,100.7,0,0,1,10.91-.6" transform="translate(-44.47 -46.62)"/><path class="cls-6" d="M135,113.33h3.56V134.7h5.34v3.56H135Zm-12.47,19.59V113.33h3.56v19.59a1.79,1.79,0,0,0,3.57,0V113.33h3.56v19.59q0,5.34-5.35,5.34T122.56,132.92ZM117,134.7h-4.88l-.62,3.56h-3.62l4.38-24.93h4.59l4.39,24.93h-3.62Zm-.65-3.56-1.79-10.23-1.8,10.23Zm-14.88-10.69h1.78a1.78,1.78,0,0,0,0-3.56h-1.78Zm-3.56-7.12h5.34q5.34,0,5.34,5.34T103.24,124h-1.78v14.25H97.9ZM87.21,123.5v14.76H83.65V113.33h3.74l5.17,14.76V113.33h3.56v24.93H92.38Zm-17.8-10.17H73v7.12h5.34v-7.12h3.56v24.93H78.31V124H73v14.25H69.41Zm-8.91,5.34v14.25a1.78,1.78,0,0,0,3.56,0V118.67a1.78,1.78,0,1,0-3.56,0Zm-3.56,14.25V118.67q0-5.34,5.34-5.34c3.56,0,5.35,1.78,5.35,5.34v14.25c0,3.56-1.79,5.34-5.35,5.34S56.94,136.48,56.94,132.92Zm-5.34-16H46.26L48,113.33h7.12v19.59q0,5.34-5.34,5.34c-3.56,0-5.35-1.78-5.35-5.34L48,131.14v1.78a1.78,1.78,0,1,0,3.56,0Z" transform="translate(-44.47 -46.62)"/><path class="cls-7" d="M223.84,134.7H219l-.62,3.56h-3.62l4.38-24.93h4.59l4.38,24.93h-3.61Zm-.65-3.56-1.8-10.23-1.79,10.23Zm-22.27-7.32v14.44h-3.56V113.33h5.19l2.82,14.87,2.81-14.87h5.2v24.93h-3.56V123.8l-2.64,13.94-.1.52h-3.44l-.08-.46Zm-14.25-.32v14.76h-3.56V113.33h3.74L192,128.09V113.33h3.57v24.93h-3.74Zm-12.46-4.83v14.25a1.78,1.78,0,1,0,3.56,0V118.67a1.78,1.78,0,1,0-3.56,0Zm-3.57,14.25V118.67c0-3.56,1.79-5.34,5.35-5.34s5.34,1.78,5.34,5.34v14.25q0,5.34-5.34,5.34C172.43,138.26,170.64,136.48,170.64,132.92Zm-8.9,0v5.34h-3.56V113.33h3.56v9.1l3.29-9.1h3.83L165,124l5.5,14.31h-3.83l-3.54-9.19Zm-12.47-14.25v14.25a1.79,1.79,0,0,0,3.57,0V118.67a1.79,1.79,0,0,0-3.57,0Zm-3.56,14.25V118.67q0-5.34,5.35-5.34t5.34,5.34v14.25q0,5.34-5.34,5.34T145.71,132.92Z" transform="translate(-44.47 -46.62)"/><path d="M218.5,152.15h1.2V143.7h0l5.89,8.45h1.52V142h-1.21v8.44h0L220,142H218.5Zm-17.19-.87a4.22,4.22,0,1,1,4-4.22A4,4,0,0,1,201.31,151.28Zm0,1.12a5.34,5.34,0,1,0-5.31-5.34A5.15,5.15,0,0,0,201.31,152.4Zm-18.39-.25h1.21V142h-1.21ZM171.56,142h-7.92v1.12H167v9.05h1.2V143.1h3.36Zm-19.68,6.55h-4.15l2.11-5h0Zm-7,3.62h1.37l1-2.5h5.08l1,2.5h1.41L150.46,142h-1.14Zm-18.37-9.05h2.3c2.32,0,4.09,1.18,4.09,4s-1.77,4-4.09,4h-2.3Zm-1.21,9.05h3.91a5.09,5.09,0,0,0,0-10.17h-3.91Zm-20.92,0h1.21V143.7h0l5.89,8.45H113V142h-1.21v8.44h0L105.87,142h-1.53ZM91.93,142H90.72v6.12c0,1.63-.6,3.18-2.63,3.18s-2.63-1.55-2.63-3.18V142h-1.2v6.29c0,2.21,1,4.13,3.83,4.13s3.84-1.92,3.84-4.13Zm-24.81,9.3a4.22,4.22,0,1,1,4-4.22A4,4,0,0,1,67.12,151.28Zm0,1.12a5.34,5.34,0,1,0-5.32-5.34A5.16,5.16,0,0,0,67.12,152.4Zm-22.65-.25h1.21v-4.57h4.74v-1.12H45.68V143.1h5.1V142H44.47Z" transform="translate(-44.47 -46.62)"/></g></g></svg>