<svg xmlns="http://www.w3.org/2000/svg" viewBox="0 0 128.55 60.85"><defs><style>.cls-1{fill:#e7040f;}.cls-1,.cls-2,.cls-3{fill-rule:evenodd;}.cls-2{fill:#393185;}.cls-3{fill:#00a0e3;}</style></defs><g id="Layer_2" data-name="Layer 2"><g id="Layer_1-2" data-name="Layer 1"><path class="cls-1" d="M64.15,0c4.38,0,7.57,5.05,4.07,9.65-4.59,3.49-9.64.29-9.64-4.08A5.57,5.57,0,0,1,64.15,0"/><path class="cls-2" d="M48.42,7.25c4.38,0,7.57,5.05,4.08,9.64-4.59,3.5-9.65.3-9.65-4.08a5.56,5.56,0,0,1,5.57-5.56"/><path class="cls-2" d="M48.42,20.91h0a9.67,9.67,0,0,1,4.11.91,12,12,0,0,0-.31,2L51.45,35A96,96,0,0,0,37.8,37.74l.46-6.67c.38-5.57,4.57-10.16,10.16-10.16"/><path class="cls-3" d="M32,29.4h0a9.73,9.73,0,0,1,4.23,1c0,.24-.06.48-.07.72l-.51,7.3a96.48,96.48,0,0,0-14.11,5.57l.3-4.38C22.21,34,26.4,29.4,32,29.4"/><path class="cls-3" d="M32,15.73c4.38,0,7.58,5.05,4.08,9.64h0c-4.59,3.5-9.64.3-9.64-4.07A5.56,5.56,0,0,1,32,15.73"/><path class="cls-2" d="M96.56,29.4h0a9.68,9.68,0,0,0-4.22,1c0,.24,0,.48.07.72l.5,7.3A96.16,96.16,0,0,1,107,43.94l-.31-4.38C106.34,34,102.15,29.4,96.56,29.4"/><path class="cls-3" d="M80.13,7.25c-4.38,0-7.58,5.05-4.08,9.64,4.59,3.5,9.64.3,9.64-4.08a5.56,5.56,0,0,0-5.56-5.56"/><path class="cls-3" d="M80.13,20.91h0a9.63,9.63,0,0,0-4.11.91,13.16,13.16,0,0,1,.31,2L77.09,35a96.1,96.1,0,0,1,13.66,2.79l-.46-6.67c-.39-5.57-4.57-10.16-10.16-10.16"/><path class="cls-2" d="M96.56,15.73c-4.38,0-7.57,5.05-4.07,9.64,4.59,3.5,9.64.3,9.64-4.07a5.57,5.57,0,0,0-5.57-5.57"/><path class="cls-1" d="M64.15,13.67h5.52a4.22,4.22,0,0,1,4.21,3.93l1.18,17.1a98.69,98.69,0,0,0-21.82,0L54,23.83c.38-5.58,4.57-10.16,10.16-10.16"/><path class="cls-3" d="M35.81,44.29A107.23,107.23,0,0,0,0,60.85a95.54,95.54,0,0,1,35.81-20.1Z"/><path class="cls-2" d="M51.18,41.47A113.31,113.31,0,0,0,38,43.75V40.11a98,98,0,0,1,13.18-2.7Z"/><path class="cls-2" d="M92.67,40.73a95.39,95.39,0,0,1,35.88,20.12A107.43,107.43,0,0,0,92.67,44.27Z"/><path class="cls-3" d="M77.18,37.39a98.82,98.82,0,0,1,13.3,2.7v3.64a115.36,115.36,0,0,0-13.3-2.29Z"/><path class="cls-1" d="M64.27,36.54A99.76,99.76,0,0,1,75,37.12v4.1c-3.52-.32-7.1-.49-10.72-.49s-7.32.17-10.91.51V37.15a98.22,98.22,0,0,1,10.91-.61"/></g></g></svg>